<svg width="216" height="65" viewBox="0 0 216 65" fill="none" xmlns="http://www.w3.org/2000/svg">
<g clip-path="url(#clip0_569_250)">
<path d="M41.2139 43.5187C40.624 43.5187 40.0325 43.2937 39.5825 42.8437C38.6808 41.942 38.6792 40.481 39.5809 39.5777C43.4817 35.6736 43.4785 29.3216 39.576 25.4207C35.6736 21.5183 29.3216 21.5183 25.4191 25.4207C21.5166 29.3232 21.5166 35.6752 25.4191 39.5777C26.3208 40.4793 26.3208 41.942 25.4191 42.8437C24.5174 43.7453 23.0548 43.7453 22.1531 42.8437C16.4505 37.1394 16.4505 27.859 22.1531 22.1547C27.8574 16.4505 37.1378 16.4505 42.842 22.1547C48.5447 27.8574 48.5463 37.1378 42.8485 42.842C42.3968 43.2937 41.8053 43.5187 41.2155 43.5187H41.2139Z" class="cls-3" fill="#242752"/>
<path d="M62.6759 56.0651H32.4992C19.506 56.0651 8.93488 45.4941 8.93488 32.5008C8.93488 19.5076 19.5043 8.93648 32.4976 8.93648C38.7917 8.93648 44.7097 11.3876 49.1603 15.8381C50.0619 16.7398 50.0619 18.2024 49.1603 19.1041C48.2586 20.0058 46.796 20.0058 45.8943 19.1041C42.3149 15.5263 37.5573 13.5542 32.4976 13.5542C22.0503 13.5542 13.551 22.0535 13.551 32.5008C13.551 42.9481 22.0503 51.4474 32.4976 51.4474H62.6743C63.9488 51.4474 64.9839 52.4809 64.9839 53.7571C64.9839 55.0333 63.9505 56.0667 62.6743 56.0667L62.6759 56.0651Z" fill="url(#paint0_linear_569_250)"/>
<path d="M41.4164 65H32.4976C14.578 65 0 50.422 0 32.5024C0 14.5828 14.578 0 32.4976 0C41.0274 0 49.0863 3.28046 55.1892 9.23543C61.2824 15.1808 64.7589 23.1368 64.9823 31.6361C65.0161 32.9107 64.0099 33.9715 62.7337 34.0052C61.4543 34.0438 60.3984 33.0328 60.3646 31.7566C60.1733 24.4644 57.1902 17.6399 51.9633 12.54C46.7268 7.43045 39.8139 4.61771 32.496 4.61771C17.1256 4.61771 4.61771 17.1272 4.61771 32.5024C4.61771 47.8777 17.124 60.3823 32.4976 60.3823H41.4164C42.691 60.3823 43.726 61.4158 43.726 62.6919C43.726 63.9681 42.6926 65.0016 41.4164 65.0016V65Z" fill="url(#paint1_linear_569_250)"/>
<path d="M77.8743 33.2617C77.8743 25.1979 83.7328 20.5047 90.3162 20.5047C95.3551 20.5047 99.7654 23.3078 101.435 28.0637L97.7821 29.544C96.4914 26.3632 93.8458 24.2529 90.2536 24.2529C85.6551 24.2529 82.0323 27.7487 82.0323 33.4497C82.0323 39.7808 86.5375 42.3637 90.6007 42.3637C94.6639 42.3637 97.467 39.9062 98.6645 36.0005L102.318 37.2606C100.46 43.0564 96.1121 46.1119 90.5059 46.1119C83.1671 46.1119 77.8759 40.9461 77.8759 33.2601L77.8743 33.2617Z" class="cls-3" fill="#242851"/>
<path d="M103.92 36.8829C103.92 31.4969 107.543 27.559 112.645 27.559C116.708 27.559 120.961 30.1098 120.961 36.7254V37.8279H107.701C107.983 40.9461 110.158 42.7735 112.897 42.7735C115.07 42.7735 116.772 41.4829 117.59 39.4658L121.086 40.8512C119.889 43.9372 116.865 46.1119 112.897 46.1119C107.762 46.1119 103.92 42.4585 103.92 36.8829ZM117.18 35.1502C116.928 31.9694 114.787 30.772 112.612 30.772C110.03 30.772 108.329 32.5673 107.889 35.1502H117.18Z" class="cls-3" fill="#242851"/>
<path d="M124.611 28.0637H128.264V31.0243H128.39C129.272 29.1036 131.13 27.5606 133.555 27.5606C134.123 27.5606 134.688 27.6233 135.318 27.8757V32.0337C134.656 31.7814 133.743 31.6881 133.178 31.6881C129.208 31.6881 128.327 35.4363 128.327 38.3021V45.5782H124.609V28.0653L124.611 28.0637Z" class="cls-3" fill="#242851"/>
<path d="M136.326 36.8829C136.326 31.4969 139.949 27.559 145.051 27.559C149.114 27.559 153.367 30.1098 153.367 36.7254V37.8279H140.107C140.389 40.9461 142.564 42.7735 145.303 42.7735C147.476 42.7735 149.178 41.4829 149.996 39.4658L153.492 40.8512C152.295 43.9372 149.271 46.1119 145.303 46.1119C140.168 46.1119 136.326 42.4585 136.326 36.8829ZM149.588 35.1502C149.336 31.9694 147.195 30.772 145.02 30.772C142.437 30.772 140.737 32.5673 140.296 35.1502H149.588Z" class="cls-3" fill="#242851"/>
<path d="M160.736 42.8989H160.673V45.5766H157.02V20.3793H160.738V30.9311C162.186 28.6311 164.296 27.5606 166.722 27.5606C171.445 27.5606 174.47 31.6238 174.47 36.7896C174.47 42.5534 170.754 46.1135 166.471 46.1135C163.856 46.1135 161.81 44.7585 160.739 42.9005L160.736 42.8989ZM165.68 42.5839C168.546 42.5839 170.593 40.1585 170.593 36.8507C170.593 33.5429 168.546 31.087 165.648 31.087C162.75 31.087 160.672 33.5124 160.672 36.8507C160.672 40.189 162.845 42.5839 165.68 42.5839Z" class="cls-3" fill="#242851"/>
<path d="M178.026 28.0637H181.679V31.0243H181.804C182.687 29.1036 184.545 27.5606 186.97 27.5606C187.537 27.5606 188.103 27.6233 188.733 27.8757V32.0337C188.071 31.7814 187.158 31.6881 186.592 31.6881C182.622 31.6881 181.742 35.4363 181.742 38.3021V45.5782H178.024V28.0653L178.026 28.0637Z" class="cls-3" fill="#242851"/>
<path d="M193.394 20C194.749 20 195.788 21.1026 195.788 22.3932C195.788 23.7787 194.748 24.8813 193.394 24.8813C192.041 24.8813 190.937 23.7787 190.937 22.3932C190.937 21.1026 191.977 20 193.394 20ZM191.506 28.0637H195.222V45.5766H191.506V28.0637Z" class="cls-3" fill="#242851"/>
<path d="M199.724 39.0575V28.0653H203.472V37.7347C203.472 40.9477 204.92 42.5855 207.095 42.5855C209.74 42.5855 211.253 40.2228 211.253 37.6094V28.0653H215.001V40.0974C215.001 43.0275 215.221 44.1928 215.568 45.5782H211.851C211.598 44.5383 211.473 43.7508 211.473 43.1207H211.41C210.34 45.0109 208.607 46.1135 206.024 46.1135C202.402 46.1135 199.725 43.9404 199.725 39.0575H199.724Z" class="cls-3" fill="#242851"/>
</g>
<defs>
<linearGradient id="paint0_linear_569_250" x1="8.93327" y1="32.5008" x2="64.9839" y2="32.5008" gradientUnits="userSpaceOnUse">
<stop stop-color="#0A76C6"/>
<stop offset="0.5" stop-color="#E81880"/>
<stop offset="1" stop-color="#FF5B3B"/>
</linearGradient>
<linearGradient id="paint1_linear_569_250" x1="0" y1="32.5008" x2="64.9839" y2="32.5008" gradientUnits="userSpaceOnUse">
<stop stop-color="#0A76C6"/>
<stop offset="0.5" stop-color="#E81880"/>
<stop offset="1" stop-color="#FF5B3B"/>
</linearGradient>
<clipPath id="clip0_569_250">
<rect width="215.568" height="65" fill="white"/>
</clipPath>
</defs>
</svg>
